<svg width="121" height="88" viewBox="0 0 121 88" fill="none" xmlns="http://www.w3.org/2000/svg">
<path d="M96.9 1.7C95.4 3.5 73 66.4 73.1 68.7C73.1 69.6 74.8 70 78.1 70C82 70 83.3 69.6 84.7 67.7C85.6 66.5 90.5 53.8 95.5 39.5L104.6 13.5L109.8 13.2C112.6 13 115.4 12.4 115.9 11.7C116.7 10.7 120.1 1.4 120.1 0.299999C120.1 0.099999 115.2 -1.04308e-06 109.3 -1.04308e-06C100.2 -1.04308e-06 98.2 0.299999 96.9 1.7Z" fill="#333333"/>
<path d="M0.7 21.2C1.1 22.5 3.5 29.6 6.1 37L10.9 50.5L35 50.8C60.3 51 60.2 51 58.5 55.4C58 56.8 55 57 36 57C12 57 13.1 56.7 15.2 63.1C17.4 69.9 17.9 70 42.1 70C59.9 70 64.2 69.7 65.4 68.6C66.8 67.1 74.7 46 75.8 40.7L76.4 38H47.7H19.1L18.1 35.4C17.5 34 17.1 32.7 17.1 32.4C17.1 32.2 31.1 31.9 48.3 31.8L79.4 31.5L81.2 26.5C82.2 23.7 83 20.9 83 20.2C83.1 19.3 74.2 19 41.5 19H0L0.7 21.2Z" fill="#333333"/>
<path d="M38.4 77.5C35.2 79.8 35.3 84.4 38.6 86.6C41.9 88.7 45.4 87.8 47 84.3C48 82 47.9 81.3 46.3 79.1C44 75.9 41.3 75.4 38.4 77.5Z" fill="#333333"/>
<path d="M70.1 78C69 79.1 68.1 80.9 68.1 82C68.1 83.1 69 84.9 70.1 86C71.2 87.1 73 88 74.1 88C75.2 88 77 87.1 78.1 86C79.2 84.9 80.1 83.1 80.1 82C80.1 80.9 79.2 79.1 78.1 78C77 76.9 75.2 76 74.1 76C73 76 71.2 76.9 70.1 78Z" fill="#333333"/>
</svg>
