<?xml version="1.0" standalone="no"?>
<!DOCTYPE svg PUBLIC "-//W3C//DTD SVG 20010904//EN"
 "http://www.w3.org/TR/2001/REC-SVG-20010904/DTD/svg10.dtd">
<svg version="1.0" xmlns="http://www.w3.org/2000/svg"
 width="700.000000pt" height="700.000000pt" viewBox="0 0 700.000000 700.000000"
 preserveAspectRatio="xMidYMid meet">
<metadata>
Created by potrace 1.14, written by Peter Selinger 2001-2017
</metadata>
<g transform="translate(0.000000,700.000000) scale(0.100000,-0.100000)"
fill="#000000" stroke="none">
<path d="M3289 6926 c-2 -2 -42 -6 -89 -10 -47 -3 -94 -8 -105 -10 -11 -2 -47
-7 -80 -11 -32 -4 -68 -9 -80 -11 -11 -2 -33 -6 -50 -9 -174 -30 -425 -100
-600 -168 -44 -17 -82 -32 -85 -32 -36 -8 -281 -128 -392 -192 -170 -97 -419
-270 -518 -359 -14 -12 -52 -46 -85 -76 -274 -245 -543 -584 -713 -898 -209
-384 -326 -748 -396 -1220 -29 -198 -29 -628 0 -855 146 -1142 843 -2126 1874
-2645 268 -135 593 -244 890 -299 247 -46 359 -56 640 -56 216 0 319 6 485 30
22 3 57 7 77 10 29 4 226 45 283 59 61 15 209 60 245 73 8 3 20 7 25 9 128 34
449 183 640 297 90 54 212 134 225 147 3 3 18 14 34 24 35 22 226 177 285 231
226 205 441 461 605 720 68 107 209 375 255 485 12 30 27 64 31 75 66 153 160
496 194 705 15 93 17 113 33 255 15 138 8 621 -11 722 -2 10 -7 43 -11 73 -11
88 -52 286 -80 393 -30 116 -118 369 -168 483 -141 326 -362 669 -602 933 -73
81 -202 208 -274 271 -35 30 -68 60 -75 65 -23 21 -183 143 -248 189 -156 110
-474 283 -633 345 -133 52 -164 63 -249 91 -198 66 -489 130 -661 146 -33 3
-71 8 -85 10 -29 7 -525 16 -531 10z"/>
</g>
</svg>
